<?xml version="1.0" encoding="UTF-8" standalone="no"?>
<!-- Created with Inkscape (http://www.inkscape.org/) -->

<svg
   xmlns:dc="http://purl.org/dc/elements/1.1/"
   xmlns:cc="http://creativecommons.org/ns#"
   xmlns:rdf="http://www.w3.org/1999/02/22-rdf-syntax-ns#"
   xmlns:svg="http://www.w3.org/2000/svg"
   xmlns="http://www.w3.org/2000/svg"
   xmlns:sodipodi="http://sodipodi.sourceforge.net/DTD/sodipodi-0.dtd"
   xmlns:inkscape="http://www.inkscape.org/namespaces/inkscape"
   width="283.29428"
   height="61.0793"
   viewBox="0 0 283.29428 61.079302"
   id="svg2"
   version="1.1"
   inkscape:version="0.91 r13725"
   sodipodi:docname="USC university logo.svg">
  <defs
     id="defs4" />
  <sodipodi:namedview
     id="base"
     pagecolor="#ffffff"
     bordercolor="#666666"
     borderopacity="1.0"
     inkscape:pageopacity="0.0"
     inkscape:pageshadow="2"
     inkscape:zoom="1.1867187"
     inkscape:cx="72.894672"
     inkscape:cy="76.25394"
     inkscape:document-units="px"
     inkscape:current-layer="layer1"
     showgrid="false"
     fit-margin-top="0"
     fit-margin-left="0"
     fit-margin-right="0"
     fit-margin-bottom="0"
     units="px"
     inkscape:window-width="1920"
     inkscape:window-height="1017"
     inkscape:window-x="-8"
     inkscape:window-y="-8"
     inkscape:window-maximized="1" />
  <metadata
     id="metadata7">
    <rdf:RDF>
      <cc:Work
         rdf:about="">
        <dc:format>image/svg+xml</dc:format>
        <dc:type
           rdf:resource="http://purl.org/dc/dcmitype/StillImage" />
        <dc:title></dc:title>
      </cc:Work>
    </rdf:RDF>
  </metadata>
  <g
     inkscape:label="Layer 1"
     inkscape:groupmode="layer"
     id="layer1"
     transform="translate(-129.78143,-547.53684)">
    <g
       id="g3339"
       transform="matrix(0.589,0,0,0.589,102.62853,525.09594)">
      <path
         id="path3341"
         d="m 71.5,94 -4.2,0 c -0.5,0 -0.9,0 -1,-0.6 -0.2,-0.7 0.5,-0.9 0.5,-0.9 -0.1,0 -0.2,0.4 -0.1,0.7 0.1,0.3 0.4,0.3 0.8,0.3 l 4.6,0 c 0.1,0.4 -0.6,0.5 -0.6,0.5"
         class="st0"
         inkscape:connector-curvature="0"
         style="fill:#231f20" />
      <path
         id="path3343"
         d="m 70.4,112 -2,0 c -0.3,0 -0.7,-0.1 -0.8,-0.4 -0.2,-0.5 0.4,-0.6 0.4,-0.6 0,0 -0.1,0.2 0,0.4 0.1,0.2 0.3,0.2 0.6,0.2 l 2.4,0 c -0.1,0.4 -0.6,0.4 -0.6,0.4"
         class="st0"
         inkscape:connector-curvature="0"
         style="fill:#231f20" />
      <path
         id="path3345"
         d="m 72.1,94.4 -5.6,0 c -0.5,0 -1,-0.5 -1,-1.1 0,-0.7 0.5,-1.1 1,-1.1 l 5.6,0 c 0.5,0 1,0.5 1,1.1 0,0.6 -0.4,1.1 -1,1.1 m -1.3,1.4 -2.9,0 c -0.5,0 -0.9,-0.2 -1.2,-0.6 l 5.3,0 c -0.3,0.4 -0.7,0.6 -1.2,0.6 m -2,0.9 c 0.6,0 1.4,0 2.2,-0.1 l -0.6,13.1 -1.4,0 -0.2,-13 z m -1.2,-0.1 c 0,0 0.2,0 0.5,0.1 l 0.5,13.1 -0.4,0 -0.6,-13.2 z m 4.3,14.9 c 0,0.5 -0.4,1 -1,1 l -3,0 c -0.5,0 -1,-0.4 -1,-1 0,-0.5 0.4,-1 1,-1 l 3,0 c 0.5,0 1,0.5 1,1 m -1.9,7.2 c 0,0.4 -0.3,0.6 -0.6,0.6 -0.4,0 -0.6,-0.3 -0.6,-0.6 l -0.3,-5.4 0.3,0 0.2,5.2 c 0,0.4 0.2,0.5 0.2,0.5 l -0.1,-5.7 1.2,0 -0.3,5.4 z M 65,89.4 c 0,-0.7 0.3,-1.3 0.6,-1.9 0.4,-0.8 0.8,-1.6 0.6,-2.7 0.4,0.2 0.9,0.4 1.3,0.8 -0.3,0.3 -0.6,0.7 -0.7,0.8 -1.1,1.4 -1.6,3 -0.4,4.8 l -0.2,0 c 0,0.1 -1.2,-0.3 -1.2,-1.8 m 4.1,-6 c 1,0.8 2.3,2.4 2.3,4.2 0,1.6 -1.4,3.5 -1.7,3.7 -0.3,-0.4 -0.6,-1 -0.6,-1.8 0,-1.3 0.6,-2.1 0.6,-2.1 0,0 -1,0.6 -1.1,1.9 -0.1,0.6 0.1,1.2 0.5,2.1 l -0.6,0 c -0.2,-0.3 -1.3,-1.7 -0.3,-3.2 0.2,-0.3 0.9,-1.3 1,-1.5 0.1,-0.3 0.1,-0.5 0.1,-0.5 -0.1,0.2 -0.3,0.4 -0.3,0.4 -0.2,0.2 -0.9,0.9 -1.1,1.2 -1.3,1.6 0,3.5 0,3.6 l -0.5,0 C 66.8,90.7 66.6,90 66.7,89 c -0.1,-2.3 2.6,-2.6 2.4,-5.6 m 3.7,1.9 c -0.3,1.7 0.2,3.1 0.3,3.3 0.5,1.7 -0.8,2.5 -1.1,2.7 l 0,0 -1.3,0 c 0.8,-1.1 1.5,-2.5 1.5,-3.7 0,-0.4 0,-0.7 -0.1,-1.1 L 72,86.1 c 0.3,-0.3 0.6,-0.6 0.8,-0.8 m 0.3,6.3 C 73.8,91 74.4,89.9 74,88.4 l 0,0 c 0,0 -0.7,-1.7 -0.1,-3.6 l 0.2,-0.6 -0.6,0.1 c -0.1,0 -0.9,0.1 -1.8,1.1 -0.8,-1.6 -2.2,-2.7 -3.8,-3.5 0.6,1.8 0.6,2.4 0.2,3.2 -1,-1 -2.3,-1.2 -2.4,-1.2 l -0.7,-0.1 0.3,0.7 c 0.5,1.1 0.1,1.8 -0.3,2.7 -0.3,0.6 -0.7,1.4 -0.7,2.3 0,1.2 0.6,1.9 1.2,2.4 -0.4,0.4 -0.7,0.9 -0.7,1.5 0,0.7 0.4,1.4 1,1.7 0.2,0.6 0.6,1.1 1.1,1.3 l 0.7,13.4 c -0.8,0.2 -1.4,0.9 -1.4,1.8 0,0.9 0.7,1.7 1.6,1.8 l 0.3,5.4 c 0,0.8 0.6,1.4 1.4,1.4 0.8,0 1.4,-0.6 1.4,-1.4 l 0.2,-5.4 c 0.9,-0.1 1.6,-0.9 1.6,-1.8 0,-0.9 -0.6,-1.6 -1.4,-1.8 l 0.6,-13.4 c 0.6,-0.3 1,-0.8 1.2,-1.4 0.6,-0.3 1,-1 1,-1.7 -0.1,-0.7 -0.5,-1.3 -1,-1.7"
         class="st0"
         inkscape:connector-curvature="0"
         style="fill:#231f20" />
      <path
         id="path3347"
         d="m 105.1,94 -4.2,0 c -0.5,0 -0.9,0 -1,-0.6 -0.2,-0.7 0.5,-0.9 0.5,-0.9 -0.1,0 -0.2,0.4 -0.1,0.7 0.1,0.3 0.4,0.3 0.8,0.3 l 4.7,0 c 0,0.4 -0.7,0.5 -0.7,0.5"
         class="st0"
         inkscape:connector-curvature="0"
         style="fill:#231f20" />
      <path
         id="path3349"
         d="m 104,112 -2,0 c -0.3,0 -0.7,-0.1 -0.8,-0.4 -0.2,-0.5 0.4,-0.6 0.4,-0.6 0,0 -0.1,0.2 0,0.4 0.1,0.2 0.3,0.2 0.6,0.2 l 2.4,0 C 104.4,112 104,112 104,112"
         class="st0"
         inkscape:connector-curvature="0"
         style="fill:#231f20" />
      <path
         id="path3351"
         d="m 105.7,94.4 -5.6,0 c -0.5,0 -1,-0.5 -1,-1.1 0,-0.7 0.5,-1.1 1,-1.1 l 5.6,0 c 0.5,0 1,0.5 1,1.1 0,0.6 -0.5,1.1 -1,1.1 m -1.4,1.4 -2.9,0 c -0.5,0 -0.9,-0.2 -1.2,-0.6 l 5.3,0 c -0.2,0.4 -0.7,0.6 -1.2,0.6 m -2,0.9 c 0.6,0 1.4,0 2.2,-0.1 l -0.6,13.1 -1.4,0 -0.2,-13 z m -1.1,-0.1 c 0,0 0.2,0 0.5,0.1 l 0.5,13.1 -0.4,0 -0.6,-13.2 z m 4.2,14.9 c 0,0.5 -0.4,1 -1,1 l -3,0 c -0.5,0 -1,-0.4 -1,-1 0,-0.5 0.4,-1 1,-1 l 3,0 c 0.6,0 1,0.5 1,1 m -1.8,7.2 c 0,0.4 -0.3,0.6 -0.6,0.6 -0.4,0 -0.6,-0.3 -0.6,-0.6 l -0.3,-5.4 0.3,0 0.2,5.2 c 0,0.4 0.2,0.5 0.2,0.5 l -0.1,-5.7 1.2,0 -0.3,5.4 z m -5,-29.3 c 0,-0.7 0.3,-1.3 0.6,-1.9 0.4,-0.8 0.8,-1.6 0.6,-2.7 0.4,0.2 0.9,0.4 1.3,0.8 -0.3,0.3 -0.6,0.7 -0.7,0.8 -1.1,1.4 -1.6,3 -0.4,4.8 l -0.2,0 c 0,0.1 -1.2,-0.3 -1.2,-1.8 m 4,-6 c 1,0.8 2.3,2.4 2.3,4.2 0,1.6 -1.4,3.5 -1.7,3.7 -0.3,-0.4 -0.6,-1 -0.6,-1.8 0,-1.3 0.7,-2.1 0.7,-2.1 0,0 -1,0.6 -1.1,1.9 -0.1,0.6 0.1,1.2 0.5,2.1 l -0.7,0 c -0.2,-0.3 -1.3,-1.7 -0.3,-3.2 0.2,-0.3 0.9,-1.3 1,-1.5 0.1,-0.3 0.1,-0.5 0.1,-0.5 -0.1,0.2 -0.3,0.4 -0.3,0.4 -0.2,0.2 -0.9,0.9 -1.1,1.2 -1.3,1.6 0,3.5 0,3.6 l -0.5,0 c -0.6,-0.7 -0.8,-1.4 -0.7,-2.4 0,-2.3 2.7,-2.6 2.4,-5.6 m 3.8,1.9 c -0.3,1.7 0.2,3.1 0.3,3.3 0.5,1.7 -0.8,2.5 -1.1,2.7 l 0,0 -1.3,0 c 0.8,-1.1 1.5,-2.5 1.5,-3.7 0,-0.4 0,-0.7 -0.1,-1.1 l -0.1,-0.4 c 0.2,-0.3 0.5,-0.6 0.8,-0.8 m 0.2,6.3 c 0.7,-0.6 1.3,-1.7 0.9,-3.2 l 0,0 c 0,0 -0.7,-1.7 -0.1,-3.6 l 0.2,-0.6 -0.6,0.1 c -0.1,0 -0.9,0.1 -1.8,1.1 -0.8,-1.6 -2.2,-2.7 -3.8,-3.5 0.6,1.8 0.6,2.4 0.2,3.2 -1,-1 -2.3,-1.2 -2.4,-1.2 l -0.7,-0.1 0.3,0.7 c 0.5,1.1 0.1,1.8 -0.3,2.7 -0.3,0.6 -0.7,1.4 -0.7,2.3 0,1.2 0.6,1.9 1.2,2.4 -0.4,0.4 -0.7,0.9 -0.7,1.5 0,0.7 0.4,1.4 1,1.7 0.2,0.6 0.6,1.1 1.1,1.3 l 0.7,13.4 c -0.8,0.2 -1.4,0.9 -1.4,1.8 0,0.9 0.7,1.7 1.6,1.8 l 0.3,5.4 c 0,0.8 0.6,1.4 1.4,1.4 0.8,0 1.4,-0.6 1.4,-1.4 l 0.2,-5.4 c 0.9,-0.1 1.6,-0.9 1.6,-1.8 0,-0.9 -0.6,-1.6 -1.4,-1.8 l 0.6,-13.4 c 0.6,-0.3 1,-0.8 1.2,-1.4 0.6,-0.3 1,-1 1,-1.7 -0.1,-0.7 -0.4,-1.3 -1,-1.7"
         class="st0"
         inkscape:connector-curvature="0"
         style="fill:#231f20" />
      <path
         id="path3353"
         d="m 90.1,97 -7.4,0 c -1,0 -1.8,-0.8 -1.8,-1.7 0,-1 0.8,-1.7 1.7,-1.8 l 7.4,0 c 0.1,0 0.3,0 0.4,0 l 0,0 c 0,0 0,0 0,0 0.8,0.2 1.3,0.9 1.3,1.7 0.2,1 -0.6,1.8 -1.6,1.8 m -1.5,1.9 -4.5,0 c -0.7,0 -1.3,-0.4 -1.6,-1.1 0.1,0 0.1,0 0.2,0 l 7.4,0 c 0.1,0 0.2,0 0.2,0 -0.2,0.7 -0.9,1.1 -1.7,1.1 m -0.5,19.5 -2.2,0 -0.2,-18.6 2.9,0 c 0.1,0 0.2,0 0.3,0 l -0.8,18.6 z m 2,2.2 c 0,0.8 -0.6,1.5 -1.4,1.5 l -4.3,0 c -0.8,0 -1.5,-0.7 -1.5,-1.4 0,-0.8 0.6,-1.4 1.4,-1.4 l 4.3,0 c 0.8,-0.1 1.5,0.5 1.5,1.3 m -2.6,9.9 c 0,0.6 -0.5,1.1 -1.1,1.1 -0.6,0 -1.1,-0.5 -1.1,-1.1 l -0.3,-7.6 0.7,0 0.3,7.4 c 0,0.5 0.3,0.7 0.3,0.7 l -0.1,-8 1.8,0 -0.5,7.5 z m -2.8,-30.7 0.8,18.6 -0.7,0 -0.9,-18.6 c 0.1,0 0.1,0 0.2,0 l 0.6,0 z M 80.3,90 c 0,-1 0.4,-1.8 0.8,-2.7 0.6,-1.1 1.1,-2.3 0.7,-3.9 0.6,0.2 1.5,0.6 2.2,1.4 -0.2,0.2 -0.4,0.4 -0.6,0.7 -0.2,0.2 -0.3,0.4 -0.5,0.6 -0.3,0.3 -3,3.1 -0.7,6.7 -0.1,0 -0.2,0 -0.3,0.1 C 81.8,92.7 80.3,92 80.3,90 m 5.4,-6.4 c 0.3,-0.7 0.2,-1.5 0.1,-2.2 1.3,1 3.5,3.1 3.5,5.7 0,2.7 -1.7,4.8 -2.4,5.5 l -0.1,0 C 86.4,92.1 86,91.2 86,90.1 c 0,-1.8 0.9,-2.9 0.9,-2.9 0,0 -1.3,0.9 -1.5,2.6 -0.1,0.8 0.1,1.7 0.6,2.8 l -0.8,0 C 85,92.2 83.4,90.3 84.7,88.1 84.9,87.7 85.9,86.3 86,86 c 0.2,-0.4 0.1,-0.7 0.1,-0.7 -0.1,0.4 -0.4,0.7 -0.4,0.7 -0.3,0.3 -1.2,1.3 -1.5,1.7 -1.8,2.2 -0.1,4.7 0,5 l -0.9,0 c -2.5,-3.3 0.1,-5.9 0.3,-6.1 l 0,0 c 0.2,-0.2 0.3,-0.4 0.5,-0.5 0.7,-0.8 1.2,-1.4 1.6,-2.5 m 5.8,0.4 c -0.5,2.5 0.3,4.6 0.4,4.9 0.6,2.3 -0.9,3.5 -1.5,3.8 -0.1,0 -0.2,0 -0.3,0 l -2,0 c 0.9,-1.1 2.1,-3 2.1,-5.5 0,-0.6 -0.1,-1.2 -0.3,-1.8 0.6,-0.7 1.2,-1.2 1.6,-1.4 m -0.1,9 c 0.9,-0.7 1.9,-2.1 1.3,-4.4 l 0,0 c 0,0 -1,-2.4 -0.1,-5.1 l 0.2,-0.6 -0.8,0 c -0.1,0 -1.2,0.2 -2.5,1.6 -1.3,-2.7 -4,-4.3 -4.2,-4.4 l -1,-0.6 0.4,1.1 c 0.2,0.4 0.5,1.8 0.2,2.7 -0.1,0.3 -0.2,0.5 -0.3,0.8 -1.4,-1.4 -3.2,-1.7 -3.3,-1.7 l -0.7,-0.1 0.3,0.7 c 0.7,1.6 0.2,2.7 -0.5,3.9 -0.5,0.9 -0.9,1.9 -0.9,3.1 0,1.7 0.9,2.7 1.7,3.2 -0.6,0.5 -1,1.2 -1,2 0,1 0.6,1.9 1.4,2.3 0.1,0.9 0.7,1.6 1.5,1.9 l 0.9,18.9 c -1.1,0.2 -1.9,1.1 -1.9,2.3 0,1.2 0.9,2.2 2.1,2.3 l 0.3,7.6 c 0,1.1 0.9,1.9 1.9,1.9 1.1,0 1.9,-0.9 1.9,-1.9 l 0.3,-7.6 c 1.2,0 2.2,-1.1 2.2,-2.3 0,-1.2 -0.9,-2.1 -2,-2.3 l 0.9,-18.9 c 0.8,-0.4 1.4,-1.1 1.5,-1.9 0.8,-0.4 1.4,-1.3 1.4,-2.3 0.1,-0.9 -0.5,-1.8 -1.2,-2.2"
         class="st0"
         inkscape:connector-curvature="0"
         style="fill:#231f20" />
      <path
         id="path3355"
         d="m 82.3,95.3 c -0.2,-0.5 0.1,-1 0.1,-1.1 0,0 -1,0.2 -0.8,1.3 0.2,0.9 0.8,1 1.6,1 l 6.7,0 c 0,0 0.8,0.1 1.1,-0.7 l -7.5,0 c -0.6,0.1 -1,0 -1.2,-0.5"
         class="st0"
         inkscape:connector-curvature="0"
         style="fill:#231f20" />
      <path
         id="path3357"
         d="m 84,120.7 c -0.2,-0.4 0,-0.8 0.1,-0.9 0,0 -0.8,0.1 -0.6,1.1 0.2,0.7 0.6,0.8 1.3,0.8 l 3.7,0 c 0,0 0.6,0.1 0.8,-0.5 l -4.3,0 c -0.6,-0.1 -0.9,-0.1 -1,-0.5"
         class="st0"
         inkscape:connector-curvature="0"
         style="fill:#231f20" />
      <path
         id="path3359"
         d="m 117.7,101.5 c -4.9,11.9 -14.3,28.3 -31.1,38.5 -16.9,-10.2 -26.3,-26.5 -31.2,-38.5 -4.5,-11 -6.2,-20.3 -6.6,-23 2,-1.1 4,-1.7 6.3,-1.7 l 0,0 c 1.6,0 3.9,0.3 5.1,0.7 l 0.8,0.2 c 0.7,0.2 1.3,0.4 2,0.6 l 0,0 c 2.5,0.7 5.3,1.4 7.5,1.4 l 0,0 c 2.4,0 6.1,-0.3 10.3,-1.8 1.2,-0.4 2.6,-0.9 4.1,-1.1 l 1.4,-0.1 c 0,0 0.1,0 0.1,0 l 2.1,0.2 c 1.3,0.2 2.5,0.6 3.5,1 4.2,1.5 7.9,1.8 10.3,1.8 l 0,0 c 1.4,0 3.3,-0.3 5.9,-1 l 0,0 c 1.1,-0.3 2.2,-0.6 3.2,-0.9 l 1.2,-0.3 c 1.3,-0.4 3.6,-0.7 5.2,-0.7 l 0,0 c 2.3,0 4.4,0.6 6.3,1.6 -0.3,2.7 -1.9,12.1 -6.4,23.1 M 71.3,68.2 c -0.5,1.3 -0.9,2.7 -1.1,4.1 -1.9,-0.1 -4.4,-0.7 -6.7,-1.4 l -2.8,-0.8 c -1.4,-0.4 -3.8,-0.7 -5.5,-0.7 l 0,0 c -2.5,0 -5.1,0.6 -7.3,1.6 -0.1,-1.4 -0.2,-2.9 -0.2,-4.6 l 23.6,1.8 z M 47.6,60.8 72.2,66.2 C 72,66.6 71.8,67 71.6,67.4 L 47.5,64.2 c 0.1,-1.1 0.1,-2.3 0.1,-3.4 m 0.9,-9 25.5,11.8 c -0.5,0.6 -0.9,1.2 -1.3,1.8 l -24.9,-7 c 0.1,-2.1 0.3,-4.3 0.7,-6.6 M 49.2,48 c 1,0.2 2.9,0.6 5.5,0.9 l 20.8,13.4 c -0.3,0.3 -0.6,0.5 -0.8,0.8 L 48.9,49.3 C 49,48.9 49.1,48.4 49.2,48 m 11,1.1 c 2.7,0 5.2,-0.2 7.5,-0.7 l 10.5,11.7 c -0.8,0.5 -1.5,1 -2.2,1.6 L 58.7,49.1 c 0.5,0 1,0 1.5,0 m 13.4,-2.2 6.9,12.2 c -0.5,0.2 -0.9,0.4 -1.4,0.6 L 70.3,47.9 c 1.1,-0.3 2.2,-0.7 3.3,-1 m 9.2,-4.5 2.1,15.6 c -1.2,0.1 -2.3,0.4 -3.4,0.7 L 75.7,46 c 2.9,-1.1 5.3,-2.4 7.1,-3.6 m 3.6,-2.6 c 0.5,0.4 1,0.8 1.6,1.2 l -1,17 c -0.2,0 -0.4,0 -0.6,0 l 0,0 c -0.2,0 -0.4,0 -0.6,0 L 84.9,41 c 0.6,-0.5 1.2,-0.9 1.5,-1.2 m 3.6,2.6 c 2.5,1.6 4.9,2.8 7,3.6 L 91.2,58.6 C 90.1,58.3 89,58 87.9,57.9 L 90,42.4 Z m 9.2,4.5 c 1.5,0.5 2.6,0.8 3.3,1 l -8.8,11.8 c -0.5,-0.2 -0.9,-0.4 -1.4,-0.6 l 6.9,-12.2 z m 5.9,1.5 c 2.6,0.4 5.3,0.7 8,0.7 0.3,0 0.6,0 1,0 L 96.8,61.7 c -0.7,-0.6 -1.4,-1.1 -2.2,-1.5 l 10.5,-11.8 z m 13,0.4 c 2.6,-0.3 4.6,-0.7 5.6,-0.9 0.1,0.4 0.2,0.9 0.3,1.3 L 98.2,63 c -0.3,-0.3 -0.5,-0.5 -0.8,-0.8 l 20.7,-13.4 z m 6.2,2.9 c 0.4,2.3 0.6,4.6 0.7,6.8 l -24.9,7 c -0.4,-0.7 -0.9,-1.3 -1.4,-1.9 l 25.6,-11.9 z m 1,12.5 -24.1,3.2 C 101,67 100.8,66.6 100.6,66.3 l 24.6,-5.4 c 0.1,1.1 0.1,2.2 0.1,3.3 M 108.2,72 108,71.3 c -1.5,0.4 -3.6,0.9 -5.3,1 -0.2,-1.4 -0.6,-2.8 -1.1,-4.1 l 23.7,-1.8 c 0,1.6 -0.1,3.1 -0.2,4.5 -2.2,-1 -4.7,-1.6 -7.1,-1.6 l 0,0 c -1.5,0 -4,0.3 -5.6,0.7 l -1.1,0.3 c -1.1,0.3 -2.2,0.6 -3.3,0.9 l 0.2,0.8 z m -21.7,-2.6 0,0.1 0,-0.1 c -0.6,0 -1.1,0 -1.7,0.1 l 0,0 c -1.6,0.2 -3.2,0.7 -4.4,1.1 -3.4,1.2 -6.5,1.6 -8.8,1.7 1,-7.4 7.3,-12.9 14.8,-12.9 l 0,0 c 7.5,0 13.8,5.6 14.8,12.9 -2.2,-0.1 -5.3,-0.5 -8.7,-1.7 -1,-0.4 -2.4,-0.8 -3.8,-1 l 0,0.1 0,-0.1 C 88,69.4 87.2,69.4 86.5,69.4 m -15.9,4.3 0,0 c 1.7,0 4,-0.2 6.7,-0.8 1.2,-0.3 2.4,-0.6 3.6,-1 1.2,-0.4 2.6,-0.9 4.1,-1.1 l 1.5,-0.1 2.1,0.2 c 1.3,0.2 2.6,0.6 3.5,1 1.5,0.5 3,0.9 4.4,1.2 2.3,0.5 4.4,0.6 5.9,0.6 l 0,0 c 1.4,0 3.3,-0.3 5.9,-1 1.1,-0.3 2.2,-0.6 3.3,-0.9 l 1.1,-0.3 c 1.3,-0.4 3.6,-0.7 5.2,-0.7 l 0,0 c 2.4,0 4.9,0.6 7,1.7 0,0.6 -0.1,1.1 -0.1,1.6 -2.1,-1.1 -4.5,-1.6 -6.9,-1.6 l 0,0 c -1.5,0 -4.1,0.3 -5.6,0.7 l -1.2,0.3 c -1,0.3 -2.1,0.6 -3.2,0.9 -1.6,0.4 -3.9,0.9 -5.6,1 -2.3,0 -5.8,-0.3 -9.8,-1.7 -0.5,-0.2 -1.1,-0.4 -1.7,-0.5 -0.7,-0.2 -1.4,-0.4 -2.1,-0.5 -0.8,-0.1 -1.6,-0.2 -2.3,-0.2 -0.6,0 -1.1,0 -1.6,0.1 l 0,0 c -0.9,0.1 -1.7,0.3 -2.5,0.5 -0.7,0.2 -1.4,0.4 -2,0.6 -4,1.4 -7.6,1.7 -9.8,1.7 l 0,0 c -1.9,0 -4.7,-0.7 -7.1,-1.4 l -2.8,-0.8 c -1.4,-0.4 -3.8,-0.7 -5.5,-0.7 l 0,0 c -2.4,0 -4.8,0.6 -6.9,1.6 0,-0.5 -0.1,-1 -0.1,-1.5 2.1,-1.1 4.7,-1.8 7.2,-1.8 l 0,0 c 1.6,0 3.9,0.3 5.1,0.7 l 2.8,0.8 0.2,-0.7 -0.2,0.7 c 2.5,0.7 5.2,1.4 7.4,1.4 m 37.5,4.3 -0.2,-0.7 c -2.5,0.7 -4.2,1 -5.6,1 l 0,0 c -2.3,0 -5.8,-0.3 -9.8,-1.7 -1.1,-0.4 -2.4,-0.8 -3.8,-1 -1.4,-0.2 -2.7,-0.3 -4,-0.1 -1.7,0.2 -3.2,0.7 -4.4,1.1 -4,1.4 -7.6,1.7 -9.8,1.7 l 0,0 c -2,0 -4.7,-0.7 -7.1,-1.4 l -0.2,0.7 0.2,-0.7 c -0.7,-0.2 -1.4,-0.4 -2,-0.6 l -0.8,-0.2 c -1.4,-0.4 -3.8,-0.7 -5.5,-0.7 l 0,0 c -2.4,0 -4.5,0.5 -6.5,1.6 -0.1,-0.4 -0.1,-0.9 -0.2,-1.5 2.1,-1.1 4.4,-1.7 6.7,-1.7 l 0,0 c 1.6,0 3.8,0.3 5.1,0.7 l 2.8,0.8 0.2,-0.7 -0.2,0.7 c 2.6,0.8 5.4,1.4 7.5,1.4 l 0,0 c 2.4,0 6.1,-0.3 10.3,-1.8 1.2,-0.4 2.6,-0.9 4.1,-1.1 l 1.4,-0.1 c 0,0 0.1,0 0.1,0 l 2.1,0.2 c 1.3,0.2 2.5,0.6 3.5,1 4.2,1.5 7.9,1.8 10.3,1.8 l 0,0 c 1.4,0 3.3,-0.3 5.9,-1 1.1,-0.3 2.2,-0.6 3.2,-0.9 l 1.2,-0.3 c 1.3,-0.4 3.6,-0.7 5.2,-0.7 l 0,0 c 2.4,0 4.7,0.6 6.8,1.7 -0.1,0.6 -0.1,1.1 -0.2,1.4 -2.1,-1 -4.2,-1.5 -6.6,-1.5 l 0,0 c -1.5,0 -4,0.3 -5.6,0.7 l -1.2,0.3 c -1,0.3 -2.1,0.6 -3.2,0.9 l 0.3,0.7 z m 18.5,-17.4 -0.1,-2.4 c -0.2,-2.2 -0.4,-4.6 -0.8,-7 l -0.3,-1.6 c -0.2,-0.9 -0.3,-1.7 -0.5,-2.6 l -0.2,-0.7 -0.7,0.2 c 0,0 -1.2,0.3 -3.1,0.7 l -4.7,0.5 c -0.9,0.1 -1.9,0.1 -3,0.1 -2.8,0 -5.5,-0.2 -8.1,-0.7 l -1.7,-0.3 c 0,0 -0.1,0 -0.1,0 0,0 -1.4,-0.3 -3.4,-1 L 97.7,45 c -2.2,-0.9 -4.8,-2.2 -7.4,-3.9 l -2.2,-1.6 c -0.4,-0.3 -0.8,-0.7 -1.2,-1 l -0.5,-0.4 -0.5,0.4 c 0,0 -0.4,0.4 -1.1,1 l -2.2,1.6 c -1.8,1.2 -4.3,2.6 -7.5,3.9 l -2.2,0.8 c -1.1,0.4 -2.2,0.7 -3.4,1 0,0 -0.1,0 -0.1,0 l -1.9,0.4 c -2.3,0.4 -4.7,0.6 -7.3,0.6 -1.3,0 -2.5,0 -3.6,-0.1 L 51.9,47 C 50,46.7 48.9,46.4 48.8,46.4 L 48.1,46.2 47.9,47 c -0.2,0.7 -0.3,1.4 -0.4,2.1 l -0.4,2.1 c -0.4,2.4 -0.6,4.7 -0.8,6.9 l -0.1,2.4 c -0.1,1.2 -0.1,2.3 -0.1,3.4 l 0,2.4 c 0.1,6.6 0.9,11.2 1,11.6 0.1,0.6 1.5,11.3 6.8,24.2 5,12.1 14.6,28.7 31.8,39.2 l 0.7,0.5 0.7,-0.5 c 17.2,-10.5 26.7,-27.1 31.7,-39.2 5.3,-12.9 6.7,-23.6 6.7,-24.2 0.1,-0.4 0.8,-4.9 1,-11.5 l 0,-2.3 c 0.2,-1.2 0.2,-2.4 0.1,-3.5"
         class="st0"
         inkscape:connector-curvature="0"
         style="fill:#231f20" />
      <g
         id="g3361">
        <path
           id="path3363"
           d="m 141.5,51 c 0,-1.8 -0.4,-2.6 -1.8,-2.6 l -2.4,0 c -0.3,0 -0.4,-0.1 -0.4,-0.5 l 0,-1.2 c 0,-0.3 0.1,-0.4 0.5,-0.4 0.5,0 3.1,0.2 8.1,0.2 4.4,0 6.9,-0.2 7.6,-0.2 0.3,0 0.4,0.1 0.4,0.4 l 0,1.3 c 0,0.3 -0.1,0.4 -0.4,0.4 l -2.2,0 c -1.6,0 -2.5,0.9 -2.6,2 -0.1,0.6 -0.2,3.8 -0.2,6.8 l 0,6.5 c 0,2.6 0.1,6.4 0.2,8 0.2,2.4 0.6,4.8 1.8,6.5 1.8,2.4 4.6,3.3 7.2,3.3 2.4,0 5.4,-1 7,-2.5 2,-2 3.1,-5.1 3.1,-8.9 l 0,-9.5 c 0,-4.2 -0.4,-8.8 -0.6,-10 -0.2,-1.4 -1,-2.3 -2.2,-2.3 l -1.9,0 c -0.3,0 -0.4,-0.2 -0.4,-0.4 l 0,-1.3 c 0,-0.3 0.1,-0.4 0.4,-0.4 0.5,0 2.9,0.2 6.4,0.2 3.3,0 4.9,-0.2 5.4,-0.2 0.5,0 0.5,0.2 0.5,0.4 l 0,1.2 c 0,0.3 -0.1,0.5 -0.3,0.5 l -1.9,0 c -1.9,0 -2.1,1.5 -2.2,2 -0.1,0.6 -0.1,8 -0.1,8.7 0,0.7 -0.1,9.9 -0.3,12 -0.3,4.3 -1.6,7.6 -4.4,10.1 -2.2,2 -5.6,3.3 -9.6,3.3 -2.5,0 -5.6,-0.4 -7.6,-1.3 -3.1,-1.3 -5.2,-3.7 -6.2,-7 -0.7,-2.3 -0.9,-5.8 -0.9,-12.7 l 0,-12.4 z"
           class="st1"
           inkscape:connector-curvature="0"
           style="fill:#990000" />
        <path
           id="path3365"
           d="m 176.6,71.9 c 0.2,0 0.3,0.1 0.3,0.4 0.1,1.7 0.5,3.7 2,6 1.6,2.5 4.3,3.8 6.9,3.8 2.8,0 6.8,-1.8 6.8,-6.2 0,-4.8 -2.2,-6.4 -7.8,-8.5 -1.7,-0.6 -5.2,-2.1 -7.7,-4.4 -1.8,-1.7 -2.6,-4.3 -2.6,-7.5 0,-2.9 1.2,-5.4 3.7,-7.4 2.1,-1.8 4.4,-2.5 7.5,-2.5 3.5,0 5.6,0.8 6.6,1.3 0.5,0.2 0.8,0.1 1.1,-0.2 l 0.7,-0.7 c 0.2,-0.2 0.4,-0.3 0.7,-0.3 0.3,0 0.4,0.3 0.4,0.8 0,0.8 0.8,8.2 0.8,8.7 0,0.2 -0.1,0.3 -0.3,0.4 l -0.8,0.3 c -0.2,0 -0.4,0 -0.5,-0.3 -0.5,-1.5 -1.4,-3.6 -3.3,-5.6 -1.4,-1.5 -3,-2.2 -5.5,-2.2 -4.2,0 -5.9,3.4 -5.9,5.3 0,1.8 0.2,3.4 1.5,4.7 1.4,1.4 4.3,2.6 6.4,3.3 3,0.9 5.6,2 7.6,4.1 1.7,1.8 2.6,4 2.6,7.5 0,6.4 -4.2,11.7 -11.2,11.7 -4.3,0 -6.8,-0.9 -8.9,-2.5 -0.6,-0.4 -0.9,-0.6 -1.3,-0.6 -0.3,0 -0.5,0.4 -0.8,0.9 -0.3,0.5 -0.5,0.6 -0.9,0.6 -0.4,0 -0.6,-0.3 -0.6,-0.8 0.1,-0.6 0.8,-9.2 0.9,-9.8 0.1,-0.3 0.1,-0.4 0.3,-0.4 l 1.3,0.1 z"
           class="st1"
           inkscape:connector-curvature="0"
           style="fill:#990000" />
        <path
           id="path3367"
           d="m 235,75 c 0.2,0.2 0.2,0.3 0.1,0.5 -3.2,4.5 -8.2,8.8 -15.7,8.8 -6.7,0 -10.5,-2 -13.8,-4.9 -3.9,-3.5 -5.7,-9.6 -5.7,-14.2 0,-5.2 1.7,-10.1 5.4,-14.1 2.8,-3 7.4,-5.6 13.7,-5.6 4.8,0 8.7,1.5 10.6,2.5 0.7,0.4 0.9,0.4 1.1,0 l 0.4,-1.4 c 0.1,-0.3 0.2,-0.3 0.8,-0.3 0.6,0 0.7,0.1 0.7,0.8 0,0.9 1.1,9.4 1.3,10.9 0.1,0.3 0,0.5 -0.2,0.5 l -1,0.3 c -0.3,0.1 -0.4,-0.1 -0.6,-0.5 -0.6,-1.9 -1.9,-4.5 -4.1,-6.8 -2.3,-2.2 -5.1,-3.9 -9.2,-3.9 -8.4,0 -11.9,7.6 -11.9,15.2 0,3.3 0.9,9.5 4.8,13.7 3.5,3.7 6.5,4.1 9,4.1 5.8,0 10.4,-2.9 12.6,-6.1 0.3,-0.4 0.5,-0.5 0.6,-0.4 L 235,75 Z"
           class="st1"
           inkscape:connector-curvature="0"
           style="fill:#990000" />
        <path
           id="path3369"
           d="m 251.4,83.3 c -3.6,-1.4 -5.4,-3.7 -6.3,-7.1 -0.6,-2.4 -0.8,-5.9 -0.8,-12.8 l 0,-12.4 c 0,-1.8 -0.4,-2.7 -2,-2.7 l -2.5,0 c -0.3,0 -0.4,-0.1 -0.4,-0.5 l 0,-1.2 c 0,-0.3 0.1,-0.4 0.5,-0.4 0.5,0 3.1,0.2 7.2,0.2 4.1,0 6.6,-0.2 7.2,-0.2 0.4,0 0.5,0.1 0.5,0.3 l 0,1.4 c 0,0.3 -0.1,0.4 -0.4,0.4 l -2.6,0 c -1.5,0 -2.4,1 -2.5,2.2 -0.1,0.5 -0.1,4.2 -0.1,6.8 l 0,3.5 c 0,2.8 0.2,9.5 0.3,11.2 0.1,2.4 0.5,4.9 1.7,6.7 1.9,2.8 5.3,3.8 8.4,3.8 3,0 6,-1 7.9,-2.9 2.1,-2.2 2.7,-5.4 2.7,-9.3 l 0,-11.3 c 0,-4 -0.1,-7.1 -0.3,-8.4 -0.2,-1.4 -1,-2.3 -2.4,-2.3 l -2.3,0 c -0.3,0 -0.4,-0.2 -0.4,-0.4 l 0,-1.3 c 0,-0.3 0.1,-0.4 0.4,-0.4 0.5,0 2.9,0.2 6.5,0.2 3.6,0 5.3,-0.2 5.8,-0.2 0.5,0 0.5,0.2 0.5,0.4 l 0,1.2 c 0,0.3 -0.1,0.5 -0.3,0.5 l -2.2,0 c -1.9,0 -2.1,1.5 -2.3,2.1 -0.1,0.5 -0.1,8 -0.1,8.7 0,0.7 -0.1,9.9 -0.3,12 -0.3,4.3 -1.5,7.6 -4.4,10.2 -2.1,1.9 -5.3,3.2 -9.9,3.2 -2.7,-0.1 -5.4,-0.5 -7.1,-1.2"
           class="st0"
           inkscape:connector-curvature="0"
           style="fill:#231f20" />
        <path
           id="path3371"
           d="m 296.6,80.8 c 0,0.8 0.5,1.1 1.2,1.1 l 1.7,0 c 0.5,0 0.6,0.2 0.6,0.5 l 0,0.8 c 0,0.4 -0.1,0.6 -0.4,0.6 -0.4,0 -2,-0.2 -5,-0.2 -2.7,0 -4.4,0.2 -4.7,0.2 -0.3,0 -0.4,-0.2 -0.4,-0.6 l 0,-0.8 c 0,-0.4 0.2,-0.5 0.7,-0.5 l 1.5,0 c 0.6,0 1,-0.3 1.1,-1.2 0.1,-1.4 0.1,-3.1 0.1,-4.4 l 0,-6.9 c 0,-2.1 0,-3.6 -1.5,-4.7 -1.3,-0.9 -2.5,-0.9 -3.8,-0.9 -0.8,0 -2.7,0.4 -4.3,2.1 -1,1.2 -1.2,2.6 -1.2,3.6 l 0,10.9 c 0,1.4 0.2,1.7 1.3,1.7 l 1.3,0 c 0.4,0 0.5,0.2 0.5,0.5 l 0,0.9 c 0,0.3 -0.1,0.5 -0.4,0.5 -0.4,0 -1.8,-0.2 -4.6,-0.2 -2.7,0 -4.4,0.2 -4.7,0.2 -0.3,0 -0.4,-0.2 -0.4,-0.5 l 0,-0.9 c 0,-0.3 0.1,-0.5 0.5,-0.5 l 1.5,0 c 0.7,0 1.1,-0.2 1.1,-1.1 l 0,-12.5 c 0,-1.6 -0.8,-2.5 -2.2,-3.1 l -0.4,-0.2 c -0.4,-0.2 -0.4,-0.3 -0.4,-0.5 l 0,-0.3 c 0,-0.3 0.2,-0.4 0.5,-0.5 l 4.5,-2.5 c 0.4,-0.2 0.7,-0.4 0.9,-0.4 0.3,0 0.4,0.2 0.4,0.6 l 0.4,3.2 0.1,0 c 1.5,-1.9 4.6,-3.8 7.2,-3.8 1.6,0 3.2,0.3 4.5,1.2 1.6,1.1 2.9,3.7 2.9,5 l 0,13.6 z"
           class="st0"
           inkscape:connector-curvature="0"
           style="fill:#231f20" />
        <path
           id="path3373"
           d="m 305.3,68.3 c 0,-1.8 -0.3,-2.7 -2.9,-3.2 -0.4,-0.1 -0.5,-0.2 -0.5,-0.4 l 0,-0.5 c 0,-0.2 0.1,-0.3 0.4,-0.4 1.7,-0.6 3.7,-1.5 5.7,-2.6 0.4,-0.2 0.7,-0.3 1,-0.3 0.3,0 0.3,0.3 0.3,0.6 -0.1,0.9 -0.1,4.2 -0.1,8.6 l 0,5.9 c 0,2.1 0,3.9 0.1,4.5 0.1,1 0.3,1.4 0.8,1.4 l 2.4,0 c 0.4,0 0.5,0.2 0.5,0.5 l 0,0.9 c 0,0.4 -0.1,0.5 -0.5,0.5 -0.4,0 -2.8,-0.2 -5.1,-0.2 -3.1,0 -5.1,0.2 -5.7,0.2 -0.3,0 -0.4,-0.1 -0.4,-0.4 l 0,-1.1 c 0,-0.3 0.2,-0.4 0.5,-0.4 l 2.6,0 c 0.6,0 0.8,-0.2 0.8,-1.1 0.1,-1.6 0.1,-3.2 0.1,-4.8 l 0,-7.7 z m -2.3,-16 c 0,-1.3 1.1,-2.7 3.2,-2.7 1.8,0 2.7,1.4 2.7,2.6 0,1.4 -0.9,2.9 -3.1,2.9 C 304.7,55 303,54 303,52.3"
           class="st0"
           inkscape:connector-curvature="0"
           style="fill:#231f20" />
        <path
           id="path3375"
           d="m 324.1,78.8 0.2,0 c 0.8,-2.1 4.5,-11 5.1,-13.1 0.4,-1.4 0,-2.3 -0.9,-2.3 l -1.1,0 c -0.2,0 -0.2,-0.3 -0.2,-0.5 l 0,-0.9 c 0,-0.3 0.1,-0.4 0.3,-0.4 0.7,0 1.9,0.2 4.2,0.2 2.1,0 3.3,-0.2 3.8,-0.2 0.4,0 0.5,0.1 0.5,0.5 l 0,0.9 c 0,0.4 0,0.5 -0.3,0.5 l -1,0 c -0.6,0 -1.2,0.1 -1.6,0.6 -0.8,0.7 -3.4,6.5 -4.2,8.4 -0.6,1.6 -4.5,10.4 -4.7,10.8 -0.4,0.7 -0.7,1.2 -1.3,1.2 -0.5,0 -0.8,-0.5 -1.1,-1.1 -0.1,-0.3 -3.9,-10.3 -4.1,-10.7 -0.2,-0.4 -2.3,-6.4 -2.7,-7.3 -0.7,-1.5 -1.2,-1.9 -2.2,-1.9 l -1.1,0 c -0.3,0 -0.3,-0.2 -0.3,-0.5 l 0,-0.9 c 0,-0.4 0.1,-0.4 0.6,-0.4 0.6,0 1.5,0.2 4.4,0.2 2.8,0 4.2,-0.2 4.7,-0.2 0.4,0 0.5,0.1 0.5,0.4 l 0,0.9 c 0,0.3 -0.1,0.5 -0.4,0.5 l -1.1,0 c -0.5,0 -0.9,0.3 -0.9,1 0,0.9 1.4,5.3 1.7,6.2 0.3,0.9 2.6,7 3.2,8.1"
           class="st0"
           inkscape:connector-curvature="0"
           style="fill:#231f20" />
        <path
           id="path3377"
           d="m 338.3,69.6 c -0.1,0.5 -0.2,1.3 -0.2,2.5 0,5.2 3.3,9 7.5,9 3.2,0 5.5,-1.8 6.4,-3.6 0.1,-0.2 0.3,-0.3 0.5,-0.3 l 0.7,0.4 c 0.2,0.1 0.3,0.2 0,0.8 -0.9,2.1 -3.7,5.7 -8.4,5.7 -3,0 -6.3,-0.9 -8.3,-3.7 -1.8,-2.7 -2.3,-4.6 -2.3,-8.3 0,-2.1 0.5,-5.6 3.3,-8.4 2.3,-2.3 4.9,-2.8 7.5,-2.8 6,0 7.7,5.7 7.7,7.7 0,0.7 -0.6,0.8 -1.5,0.8 l -12.9,0 z m 8.4,-1.6 c 1,0 1.4,-0.3 1.4,-0.7 0,-1.2 -0.6,-4.7 -4.1,-4.7 -2.3,0 -4.5,1.5 -5.5,5.4 l 8.2,0 z"
           class="st0"
           inkscape:connector-curvature="0"
           style="fill:#231f20" />
        <path
           id="path3379"
           d="m 357.7,69.6 c 0,-2.7 -0.4,-3.2 -1.9,-4 l -1,-0.5 c -0.3,-0.1 -0.4,-0.2 -0.4,-0.4 l 0,-0.3 c 0,-0.2 0.1,-0.3 0.4,-0.5 l 5.2,-2.7 c 0.3,-0.2 0.5,-0.2 0.7,-0.2 0.3,0 0.4,0.3 0.4,0.6 l 0.3,3.6 0.2,0 c 1.6,-2.4 4,-4.6 6.3,-4.6 1.8,0 2.7,1.1 2.7,2.3 0,1.5 -1.3,2.6 -2.2,2.6 -0.6,0 -1.1,-0.2 -1.5,-0.4 -0.4,-0.3 -1.1,-0.4 -1.7,-0.4 -0.8,0 -2.2,0.5 -3.1,2.2 -0.3,0.6 -0.5,1.5 -0.5,1.7 l 0,11 c 0,1.6 0.4,2.2 1.5,2.2 l 2.5,0 c 0.3,0 0.4,0.2 0.4,0.5 l 0,0.9 c 0,0.3 -0.1,0.5 -0.3,0.5 -0.3,0 -2.7,-0.2 -5.6,-0.2 -3.3,0 -5.5,0.2 -5.8,0.2 -0.2,0 -0.3,-0.1 -0.3,-0.5 l 0,-0.9 c 0,-0.4 0.1,-0.5 0.6,-0.5 l 2.1,0 c 0.8,0 1.2,-0.3 1.2,-1 0.1,-1.7 0.1,-3.6 0.1,-6.3 l 0,-4.9 z"
           class="st0"
           inkscape:connector-curvature="0"
           style="fill:#231f20" />
        <path
           id="path3381"
           d="m 371.9,82.7 c -0.3,-0.2 -0.3,-0.5 -0.3,-0.7 l -0.9,-5 c 0,-0.3 0.1,-0.4 0.3,-0.4 l 0.7,-0.2 c 0.2,-0.1 0.4,0.1 0.5,0.3 l 1.3,2.6 c 1.1,1.9 1.8,3.3 4.6,3.3 1.8,0 4.2,-1.1 4.2,-3.6 0,-2.4 -1.2,-3.7 -5.1,-4.8 -3.1,-0.9 -6.2,-2.5 -6.2,-6.7 0,-3.6 3.4,-6.4 7.4,-6.4 2.5,0 3.9,0.6 4.8,1.1 0.8,0.4 0.9,0.6 0.9,0.9 l 0.8,3.7 c 0,0.2 -0.1,0.4 -0.4,0.5 l -0.6,0.2 c -0.2,0.1 -0.3,0 -0.5,-0.3 l -1.8,-2.4 c -0.6,-1 -1.6,-2.1 -3.7,-2.1 -2,0 -4,1.2 -4,3.5 0,3 2.5,3.6 5,4.4 3.8,1.1 6.3,2.7 6.3,6.7 -0.1,4.3 -3.5,6.9 -8,6.9 -2.6,0 -4.7,-1 -5.3,-1.5"
           class="st0"
           inkscape:connector-curvature="0"
           style="fill:#231f20" />
        <path
           id="path3383"
           d="m 390.4,68.3 c 0,-1.8 -0.3,-2.7 -2.9,-3.2 C 387.1,65 387,64.9 387,64.7 l 0,-0.5 c 0,-0.2 0.1,-0.3 0.4,-0.4 1.7,-0.6 3.7,-1.5 5.7,-2.6 0.4,-0.2 0.7,-0.3 1,-0.3 0.3,0 0.3,0.3 0.3,0.6 -0.1,0.9 -0.1,4.2 -0.1,8.6 l 0,5.9 c 0,2.1 0,3.9 0.1,4.5 0.1,1 0.3,1.4 0.8,1.4 l 2.4,0 c 0.4,0 0.5,0.2 0.5,0.5 l 0,0.9 c 0,0.4 -0.1,0.5 -0.5,0.5 -0.4,0 -2.8,-0.2 -5.1,-0.2 -3.1,0 -5.1,0.2 -5.7,0.2 -0.3,0 -0.4,-0.1 -0.4,-0.4 l 0,-1.1 c 0,-0.3 0.2,-0.4 0.5,-0.4 l 2.6,0 c 0.6,0 0.8,-0.2 0.8,-1.1 0.1,-1.6 0.1,-3.2 0.1,-4.8 l 0,-7.7 z m -2.3,-16 c 0,-1.3 1.1,-2.7 3.2,-2.7 1.8,0 2.7,1.4 2.7,2.6 0,1.4 -0.9,2.9 -3.1,2.9 -1.1,-0.1 -2.8,-1.1 -2.8,-2.8"
           class="st0"
           inkscape:connector-curvature="0"
           style="fill:#231f20" />
        <path
           id="path3385"
           d="m 404.9,77 c 0,3.9 1.8,4.6 2.7,4.6 1.2,0 2.7,-0.2 3.5,-0.7 0.3,-0.2 0.5,-0.1 0.6,0.1 l 0.3,0.5 c 0.2,0.2 0.1,0.4 -0.1,0.6 -0.5,0.5 -2.7,2.1 -5.8,2.1 -2.6,0 -5.1,-2.5 -5.1,-4.5 0,-2.2 0.2,-6.8 0.2,-7.5 l 0,-1.2 c 0,-0.9 0.1,-4.5 0.1,-6.7 l -3.3,0 c -0.5,0 -0.8,-0.2 -0.8,-0.6 0,-0.4 0.3,-0.6 0.9,-0.9 1.3,-0.7 5.3,-4.8 6,-6.6 0.2,-0.4 0.4,-0.5 0.7,-0.5 0.4,0 0.5,0.4 0.5,0.8 l -0.3,5.2 7.3,0 c 0.3,0 0.5,0.3 0.4,0.5 l -0.5,1.8 c -0.1,0.3 -0.2,0.4 -0.5,0.4 l -6.7,0 c -0.1,2.4 -0.2,4.9 -0.2,7.4 l 0,5.2 z"
           class="st0"
           inkscape:connector-curvature="0"
           style="fill:#231f20" />
        <path
           id="path3387"
           d="m 413.8,95.2 c 0,-1.1 1.2,-2.1 2.4,-2.1 1,0 1.9,0.5 2.4,0.6 0.4,0.1 0.8,0 1.1,-0.3 0.8,-0.9 3.5,-6.9 4.2,-9 -0.3,-1.3 -5.8,-17.7 -6.3,-18.8 -0.6,-1.3 -1.1,-2.2 -2.5,-2.2 l -1.4,0 c -0.4,0 -0.4,-0.2 -0.4,-0.5 l 0,-1.1 c 0,-0.2 0.1,-0.4 0.4,-0.4 0.5,0 1.7,0.2 4.8,0.2 2.7,0 4.3,-0.2 4.9,-0.2 0.4,0 0.5,0.2 0.5,0.4 l 0,1.2 c 0,0.3 -0.1,0.4 -0.3,0.4 l -1,0 c -0.6,0 -0.8,0.4 -0.7,1.2 0.2,1.2 3.7,12.7 4.3,13.9 l 0.2,0 c 0.5,-0.8 5.1,-11.7 5.4,-13 0.3,-1.3 -0.1,-2 -0.9,-2 l -0.8,0 c -0.3,0 -0.4,-0.2 -0.4,-0.4 l 0,-1.1 c 0,-0.3 0,-0.4 0.3,-0.4 0.7,0 1.8,0.2 4.3,0.2 1.4,0 2.6,-0.2 3.2,-0.2 0.3,0 0.3,0.2 0.3,0.4 l 0,1 c 0,0.3 0,0.5 -0.3,0.5 l -0.5,0 c -0.6,0 -1.3,0.3 -1.8,1 -1.2,1.4 -4.6,9.4 -8.3,17.7 -2.6,5.8 -4.6,10.7 -5.6,12.5 -0.7,1.4 -1.7,3.4 -4.5,3.4 -2,-0.2 -3,-1.3 -3,-2.9"
           class="st0"
           inkscape:connector-curvature="0"
           style="fill:#231f20" />
        <path
           id="path3389"
           d="m 448.8,80.6 c -2.4,-2.9 -2.9,-4.8 -2.9,-8.6 0,-2.7 1.4,-6.1 4.5,-8.5 2.7,-2.1 5.3,-2.5 7,-2.5 2.9,0 5.8,1.5 7.4,3 2.4,2.4 3.6,5.2 3.6,8.6 0,5.7 -5.2,11.6 -11.6,11.6 -2.6,0 -5.8,-0.9 -8,-3.6 M 464,72.2 c 0,-5.8 -4.3,-9.5 -6.9,-9.5 -1.4,0 -2.8,0.3 -4.1,1.7 -2.1,2.1 -2.8,4.3 -2.8,8.3 0,2.9 0.3,4.9 2,7.4 1.2,1.7 2.7,2.7 5.2,2.7 4,-0.1 6.6,-5 6.6,-10.6"
           class="st0"
           inkscape:connector-curvature="0"
           style="fill:#231f20" />
        <path
           id="path3391"
           d="m 473.8,64.2 -3.6,0 c -0.3,0 -0.4,-0.1 -0.3,-0.6 l 0.2,-1.6 c 0.1,-0.3 0.2,-0.4 0.6,-0.4 l 3.1,0 0,-1 c 0,-5.2 1.5,-8.6 3.5,-10.9 2.8,-3.1 5.7,-4.2 8.6,-4.2 2.5,0 4.8,0.9 4.8,2.9 0,1.3 -1.4,2.3 -2.2,2.3 -0.5,0 -1.1,-0.1 -1.5,-0.3 -0.5,-0.3 -1.1,-0.9 -1.3,-1.2 -0.7,-0.8 -1.4,-1.2 -2.4,-1.2 -1.4,0 -2.8,0.4 -3.9,1.8 -1.9,2.5 -1.8,7 -1.8,10.7 l 0,1.1 6.4,0 c 0.4,0 0.4,0.3 0.4,0.5 l -0.3,1.7 c -0.1,0.2 -0.3,0.3 -0.7,0.3 l -5.8,0 0,4.7 c 0,6.2 0,11 0.1,11.6 0.1,0.9 0.3,1.4 1.4,1.4 l 3,0 c 0.5,0 0.6,0.1 0.6,0.4 l 0,0.8 c 0,0.4 -0.1,0.6 -0.4,0.6 -0.3,0 -2.3,-0.2 -6.3,-0.2 -2.9,0 -5.6,0.2 -6,0.2 -0.3,0 -0.4,-0.1 -0.4,-0.4 l 0,-1.2 c 0,-0.3 0.1,-0.4 0.5,-0.4 l 2.5,0 c 1,0 1.2,-0.6 1.3,-1.8 l 0,-9.9 0,-5.7 z"
           class="st0"
           inkscape:connector-curvature="0"
           style="fill:#231f20" />
        <path
           id="path3393"
           d="m 144.6,131 c -0.6,-0.5 -0.9,-0.6 -1.2,-0.6 -0.3,0 -0.5,0.4 -0.8,0.9 -0.3,0.6 -0.6,0.6 -0.9,0.6 -0.3,0 -0.6,-0.3 -0.5,-0.8 0.2,-1.3 0.7,-8 0.9,-9.5 0.1,-0.3 0.2,-0.3 0.4,-0.3 l 0.8,0.1 c 0.2,0 0.3,0.1 0.3,0.4 0.1,1.7 0.2,3.4 1.9,6.1 1.6,2.5 4.5,3.9 7.4,3.9 3.2,0 7.2,-1.9 7.2,-6.7 0,-5.4 -3.9,-7.4 -8.1,-8.9 -1.6,-0.6 -5.4,-1.9 -7.7,-4.3 -1.7,-1.7 -2.6,-4.2 -2.6,-7.7 0,-2.6 1.6,-5.2 3.3,-6.7 1.9,-1.8 4.5,-2.5 7.4,-2.5 3,0 5.3,0.9 6.2,1.3 0.5,0.3 0.7,0.2 1,-0.1 l 0.7,-0.6 c 0.3,-0.2 0.4,-0.3 0.7,-0.3 0.3,0 0.4,0.4 0.4,0.9 0,1.8 0.7,7.2 0.7,8.4 0,0.3 -0.1,0.4 -0.3,0.4 l -0.6,0.2 c -0.2,0.1 -0.3,0 -0.3,-0.2 -0.4,-1.5 -1.1,-3.6 -3.3,-5.8 -1.4,-1.5 -3.3,-2.3 -5.7,-2.3 -4.7,0 -6.4,3.5 -6.4,6.2 0,1.5 0.3,3.2 1.6,4.6 1.5,1.5 4.5,2.7 6,3.2 3.6,1.2 6.6,2 8.5,4.4 1.4,1.6 2.3,3.7 2.3,7.2 0,6.2 -3.8,11.5 -10.7,11.5 -4,-0.2 -6.5,-1.3 -8.6,-3"
           class="st0"
           inkscape:connector-curvature="0"
           style="fill:#231f20" />
        <path
           id="path3395"
           d="m 168.8,130 c -2.4,-2.9 -2.9,-4.8 -2.9,-8.6 0,-2.7 1.4,-6 4.5,-8.5 2.7,-2.1 5.3,-2.5 7,-2.5 2.9,0 5.8,1.5 7.4,3.1 2.4,2.4 3.6,5.2 3.6,8.6 0,5.7 -5.2,11.6 -11.6,11.6 -2.5,-0.1 -5.8,-1.1 -8,-3.7 m 15.2,-8.5 c 0,-5.8 -4.3,-9.5 -6.9,-9.5 -1.4,0 -2.8,0.3 -4.1,1.7 -2.1,2.1 -2.8,4.3 -2.8,8.3 0,2.9 0.3,4.9 2,7.4 1.2,1.7 2.7,2.7 5.2,2.7 4,-0.1 6.6,-5 6.6,-10.6"
           class="st0"
           inkscape:connector-curvature="0"
           style="fill:#231f20" />
        <path
           id="path3397"
           d="m 210.2,122.3 c 0,2.5 0,5.1 0.1,6.2 0.2,1.6 0.7,1.8 1.4,1.8 0.3,0 1.1,0 1.7,-0.2 0.4,-0.1 0.6,0 0.6,0.2 l 0.2,0.7 c 0.1,0.3 -0.1,0.4 -0.3,0.5 l -5.5,1.8 c -0.3,0.1 -0.6,0.2 -1.1,0.2 -0.2,0 -0.4,-0.1 -0.5,-0.6 l -0.4,-3.1 -0.1,0 c -1.5,2.1 -4.5,3.7 -7.2,3.7 -1.5,0 -3.2,-0.2 -4.9,-2.4 -2.2,-2.8 -2.1,-4.5 -2.1,-10.3 l 0,-6.1 c -0.1,-1.5 -0.8,-1.8 -2,-2 -0.9,0 -1.2,-0.1 -1.2,-0.4 l 0,-0.9 c 0,-0.3 0.1,-0.4 0.6,-0.4 l 4.7,0 c 0.3,0 0.5,-0.1 0.7,-0.1 0.2,0 0.4,-0.1 0.6,-0.1 0.4,0 0.6,0.3 0.6,0.6 -0.1,0.5 -0.2,2.9 -0.2,6 l 0,3.7 c 0,2.1 -0.5,5.5 1.2,7.9 1.3,1.9 2.8,2 4.2,2 1.4,0 3.5,-1.4 4.5,-2.6 0.2,-0.3 0.5,-0.9 0.5,-1.4 l 0,-12.5 c -0.1,-1.5 -0.9,-1.7 -2.3,-1.8 -0.9,0 -1.2,-0.1 -1.2,-0.4 l 0,-0.9 c 0,-0.4 0.1,-0.5 0.6,-0.5 l 4.9,0 c 0.4,0 0.6,-0.1 0.9,-0.1 0.3,0 0.5,-0.1 0.6,-0.1 0.3,0 0.5,0.3 0.5,0.5 -0.1,0.5 -0.3,1.8 -0.3,7 l 0,4.1 z"
           class="st0"
           inkscape:connector-curvature="0"
           style="fill:#231f20" />
        <path
           id="path3399"
           d="m 221.7,126.4 c 0,3.9 1.8,4.6 2.7,4.6 1.2,0 2.7,-0.2 3.5,-0.7 0.3,-0.2 0.5,-0.1 0.6,0.1 l 0.3,0.5 c 0.2,0.2 0.1,0.4 -0.1,0.6 -0.5,0.5 -2.7,2.1 -5.8,2.1 -2.6,0 -5.1,-2.5 -5.1,-4.5 0,-2.2 0.2,-6.8 0.2,-7.5 l 0,-1.2 c 0,-0.9 0.1,-4.5 0.1,-6.7 l -3.2,0 c -0.5,0 -0.8,-0.2 -0.8,-0.6 0,-0.4 0.3,-0.6 0.9,-0.9 1.3,-0.7 5.3,-4.8 6,-6.6 0.2,-0.4 0.4,-0.5 0.7,-0.5 0.4,0 0.5,0.4 0.5,0.8 l -0.2,5.1 7.3,0 c 0.3,0 0.5,0.3 0.4,0.5 l -0.5,1.8 c -0.1,0.3 -0.2,0.4 -0.5,0.4 l -6.8,0 c -0.1,2.4 -0.2,4.9 -0.2,7.4 l 0,5.3 z"
           class="st0"
           inkscape:connector-curvature="0"
           style="fill:#231f20" />
        <path
           id="path3401"
           d="m 233.8,104.3 c 0,-3.2 -0.6,-3.8 -2.5,-4.4 l -0.9,-0.3 C 230.1,99.5 230,99.4 230,99.3 l 0,-0.5 c 0,-0.2 0.2,-0.3 0.6,-0.5 l 5.5,-2.9 c 0.4,-0.2 0.8,-0.4 1.2,-0.4 0.3,0 0.5,0.4 0.4,1.3 -0.1,0.9 -0.2,11.6 -0.2,14.2 l 0,3.4 0.3,0 c 1.8,-2.2 4.9,-3.4 7.2,-3.4 2.2,0 3.7,0.7 5.2,2.1 2.4,2.2 2.3,4.9 2.3,7.7 l 0,3 c 0,2.9 0.1,6.2 0.1,7.2 0,0.6 0.8,0.8 1.9,0.8 l 0.9,0 c 0.4,0 0.6,0.1 0.6,0.5 l 0,0.8 c 0,0.4 -0.1,0.6 -0.4,0.6 -0.4,0 -2.1,-0.2 -5.1,-0.2 -2.6,0 -4.5,0.2 -4.9,0.2 -0.4,0 -0.5,-0.2 -0.5,-0.6 l 0,-0.9 c 0,-0.3 0.1,-0.4 0.4,-0.4 l 1.2,0 c 0.9,0 1.9,-0.1 2,-1 0.1,-0.7 0,-3.5 0,-5.2 l 0,-4.3 c 0,-2.9 -0.2,-5 -1.7,-6.5 -1.1,-1 -2.2,-1.5 -3.5,-1.5 -1.5,0 -3.4,0.5 -4.9,2.2 -0.5,0.6 -1.1,1.6 -1.1,2.6 l 0,11.5 c 0,1.7 0.2,2.2 1.2,2.2 l 1.6,0 c 0.4,0 0.6,0.1 0.6,0.4 l 0,0.9 c 0,0.4 -0.1,0.6 -0.4,0.6 -0.4,0 -2.6,-0.2 -5,-0.2 -2.6,0 -4.6,0.2 -5.1,0.2 -0.2,0 -0.4,-0.2 -0.4,-0.5 l 0,-0.9 c 0,-0.4 0.2,-0.4 0.8,-0.4 l 1.1,0 c 0.8,0 1.6,-0.2 1.7,-0.8 0.2,-1 0.2,-6.8 0.2,-10.2 l 0,-16.1 z"
           class="st0"
           inkscape:connector-curvature="0"
           style="fill:#231f20" />
        <path
           id="path3403"
           d="m 260.5,119 c -0.1,0.5 -0.2,1.3 -0.2,2.5 0,5.2 3.3,9 7.5,9 3.2,0 5.5,-1.8 6.4,-3.6 0.1,-0.2 0.3,-0.3 0.5,-0.3 l 0.7,0.4 c 0.2,0.1 0.3,0.2 0,0.8 -0.9,2.1 -3.7,5.7 -8.4,5.7 -3,0 -6.3,-0.9 -8.3,-3.7 -1.8,-2.7 -2.3,-4.6 -2.3,-8.3 0,-2.1 0.5,-5.6 3.3,-8.4 2.3,-2.3 4.9,-2.8 7.5,-2.8 6,0 7.7,5.7 7.7,7.7 0,0.7 -0.6,0.8 -1.5,0.8 l -12.9,0 z m 8.4,-1.6 c 1,0 1.4,-0.3 1.4,-0.7 0,-1.2 -0.6,-4.7 -4.1,-4.7 -2.3,0 -4.5,1.5 -5.5,5.4 l 8.2,0 z"
           class="st0"
           inkscape:connector-curvature="0"
           style="fill:#231f20" />
        <path
           id="path3405"
           d="m 280.3,119 c 0,-2.7 -0.4,-3.2 -1.9,-4 l -1,-0.5 c -0.3,-0.1 -0.4,-0.2 -0.4,-0.4 l 0,-0.3 c 0,-0.2 0.1,-0.3 0.4,-0.5 l 5.2,-2.7 c 0.3,-0.2 0.5,-0.2 0.7,-0.2 0.3,0 0.4,0.3 0.4,0.6 l 0.3,3.6 0.2,0 c 1.6,-2.4 4.1,-4.6 6.3,-4.6 1.8,0 2.7,1.1 2.7,2.3 0,1.5 -1.3,2.6 -2.2,2.6 -0.6,0 -1.1,-0.2 -1.5,-0.4 -0.4,-0.3 -1.1,-0.4 -1.7,-0.4 -0.8,0 -2.2,0.5 -3.1,2.2 -0.3,0.6 -0.5,1.5 -0.5,1.7 l 0,11.1 c 0,1.6 0.4,2.2 1.5,2.2 l 2.5,0 c 0.3,0 0.4,0.2 0.4,0.5 l 0,0.9 c 0,0.3 -0.1,0.5 -0.3,0.5 -0.3,0 -2.7,-0.2 -5.6,-0.2 -3.3,0 -5.5,0.2 -5.8,0.2 -0.2,0 -0.3,-0.1 -0.3,-0.5 l 0,-0.9 c 0,-0.4 0.1,-0.5 0.6,-0.5 l 2.1,0 c 0.8,0 1.2,-0.3 1.2,-1 0.1,-1.7 0.1,-3.6 0.1,-6.3 l 0,-5 z"
           class="st0"
           inkscape:connector-curvature="0"
           style="fill:#231f20" />
        <path
           id="path3407"
           d="m 315.7,130.1 c 0,0.8 0.5,1.1 1.2,1.1 l 1.7,0 c 0.5,0 0.6,0.2 0.6,0.5 l 0,0.8 c 0,0.4 -0.1,0.6 -0.4,0.6 -0.4,0 -2,-0.2 -5,-0.2 -2.7,0 -4.4,0.2 -4.7,0.2 -0.3,0 -0.4,-0.2 -0.4,-0.6 l 0,-0.8 c 0,-0.4 0.2,-0.5 0.7,-0.5 l 1.5,0 c 0.6,0 1,-0.3 1.1,-1.2 0.1,-1.4 0.1,-3.1 0.1,-4.4 l 0,-6.9 c 0,-2.1 0,-3.6 -1.5,-4.7 -1.3,-0.9 -2.5,-0.9 -3.8,-0.9 -0.8,0 -2.7,0.4 -4.3,2 -1.1,1.2 -1.2,2.6 -1.2,3.6 l 0,10.9 c 0,1.4 0.2,1.7 1.3,1.7 l 1.3,0 c 0.4,0 0.5,0.2 0.5,0.5 l 0,0.9 c 0,0.3 -0.1,0.5 -0.4,0.5 -0.4,0 -1.8,-0.2 -4.6,-0.2 -2.7,0 -4.4,0.2 -4.7,0.2 -0.3,0 -0.4,-0.2 -0.4,-0.5 l 0,-0.9 c 0,-0.3 0.1,-0.5 0.5,-0.5 l 1.5,0 c 0.7,0 1.1,-0.2 1.1,-1.1 l 0,-12.3 c 0,-1.6 -0.8,-2.5 -2.2,-3.1 l -0.4,-0.2 c -0.4,-0.2 -0.4,-0.3 -0.4,-0.5 l 0,-0.3 c 0,-0.3 0.2,-0.4 0.5,-0.5 l 4.5,-2.5 c 0.4,-0.2 0.7,-0.4 0.9,-0.4 0.3,0 0.4,0.2 0.4,0.6 l 0.4,3.2 0.1,0 c 1.5,-1.9 4.6,-3.8 7.2,-3.8 1.6,0 3.2,0.3 4.5,1.2 1.6,1.1 2.9,3.7 2.9,5 l 0,13.5 z"
           class="st0"
           inkscape:connector-curvature="0"
           style="fill:#231f20" />
        <path
           id="path3409"
           d="m 335.8,128.9 c -3.8,-3.6 -5.6,-9.7 -5.6,-14.7 0,-4.9 1.6,-9.9 5.4,-13.9 2.7,-2.8 7.4,-5.3 13.2,-5.3 4.8,0 8.7,1.8 10.6,2.9 0.7,0.4 0.9,0.4 1.1,0 l 0.4,-1.5 c 0.1,-0.3 0.2,-0.3 0.7,-0.3 0.5,0 0.6,0.1 0.6,0.8 0,1 1.1,8.7 1.3,10.2 0.1,0.3 0,0.5 -0.2,0.5 l -0.8,0.2 c -0.3,0.1 -0.4,0 -0.5,-0.4 -0.7,-1.7 -1.9,-4.3 -4.1,-6.5 -2.2,-2.3 -5,-4 -9.2,-4 -9.4,0 -13.2,8.4 -13.1,16 0,3 0.9,9 5,13.5 3.6,4 6.6,4.4 10.1,4.4 5.9,0 10.6,-3.3 13,-6.7 0.2,-0.3 0.3,-0.3 0.4,-0.2 l 0.7,0.5 c 0.2,0.1 0.3,0.2 0.1,0.5 -3.2,4.6 -8.3,8.8 -15.7,8.8 -6.3,0.1 -10.2,-1.9 -13.4,-4.8"
           class="st0"
           inkscape:connector-curvature="0"
           style="fill:#231f20" />
        <path
           id="path3411"
           d="m 381.8,126.7 c 0,3 0.6,3.9 1.6,3.9 0.8,0 1.6,-0.4 1.8,-0.8 0.2,-0.3 0.3,-0.4 0.5,-0.2 l 0.5,0.4 c 0.2,0.2 0.3,0.4 -0.1,0.9 -0.4,0.8 -1.4,2.6 -4.1,2.6 -1.9,0 -3.3,-1.4 -3.7,-3.5 l -0.1,0 c -1.1,1.3 -2.8,2.4 -5.2,3.2 -1,0.3 -1.9,0.3 -3.1,0.3 -1.3,0 -3.2,-1.1 -3.2,-4.4 0,-2.4 1.1,-4.5 5.3,-6.4 2.4,-1.1 5.1,-2.3 5.9,-3 l 0,-3.4 c -0.1,-0.9 -0.2,-2.3 -0.7,-2.9 -0.6,-0.7 -1.6,-1.2 -3.2,-1.2 -1,0 -2.7,0.4 -3.4,1.1 -0.7,0.7 -0.3,1.5 -0.3,2.4 0,1.8 -0.6,3 -2.8,3 -0.8,0 -1.3,-0.5 -1.3,-1.7 0,-1.7 1.5,-3.7 3.6,-4.9 2.2,-1.3 4,-1.8 6.4,-1.8 2.5,0 3.5,0.7 4.2,1.4 1.1,1.1 1.2,2.3 1.2,3.7 l 0,8 0,3.3 z m -3.9,-5.3 c -1.9,1.4 -7,2.5 -7,6.8 0,2 1.2,2.9 2.7,2.9 1.5,0 4.3,-1.8 4.3,-3.3 l 0,-6.4 z"
           class="st0"
           inkscape:connector-curvature="0"
           style="fill:#231f20" />
        <path
           id="path3413"
           d="m 395,117.3 c 0,2.7 0,10.7 0.1,12.3 0.1,0.9 0.3,1.6 1.4,1.6 l 2.4,0 c 0.5,0 0.6,0.2 0.6,0.5 l 0,0.9 c 0,0.3 -0.1,0.5 -0.3,0.5 -0.4,0 -2.7,-0.2 -5.9,-0.2 -3.4,0 -5.5,0.2 -5.9,0.2 -0.3,0 -0.4,-0.2 -0.4,-0.5 l 0,-0.9 c 0,-0.4 0.1,-0.5 0.7,-0.5 l 2.5,0 c 0.6,0 1.1,-0.4 1.2,-1.3 0.1,-1.6 0.1,-10.7 0.1,-13.7 l 0,-3.3 c 0,-3.7 -0.1,-8.5 -0.2,-9.9 -0.1,-1.8 -0.9,-2.6 -2.6,-3.2 l -1.1,-0.4 c -0.3,-0.1 -0.3,-0.2 -0.3,-0.3 l 0,-0.4 c 0,-0.2 0.2,-0.3 0.5,-0.4 1.8,-0.8 4.2,-1.8 6.2,-3.1 0.5,-0.3 0.8,-0.4 1.1,-0.4 0.4,0 0.5,0.3 0.4,0.9 -0.1,2.9 -0.2,13.8 -0.2,16.7 l 0,4.9 z"
           class="st0"
           inkscape:connector-curvature="0"
           style="fill:#231f20" />
        <path
           id="path3415"
           d="m 404.6,117.7 c 0,-1.8 -0.3,-2.7 -2.9,-3.2 -0.4,-0.1 -0.5,-0.2 -0.5,-0.4 l 0,-0.5 c 0,-0.2 0.1,-0.3 0.4,-0.4 1.7,-0.6 3.7,-1.5 5.7,-2.6 0.4,-0.2 0.7,-0.3 1,-0.3 0.3,0 0.3,0.3 0.3,0.6 -0.1,0.9 -0.1,4.2 -0.1,8.6 l 0,5.7 c 0,2.1 0,3.9 0,4.5 0.1,1 0.3,1.4 0.8,1.4 l 2.4,0 c 0.4,0 0.5,0.2 0.5,0.5 l 0,0.9 c 0,0.4 -0.1,0.5 -0.5,0.5 -0.4,0 -2.8,-0.2 -5.1,-0.2 -3.1,0 -5.1,0.2 -5.7,0.2 -0.3,0 -0.4,-0.1 -0.4,-0.4 l 0,-1.1 c 0,-0.3 0.2,-0.4 0.5,-0.4 l 2.6,0 c 0.6,0 0.8,-0.2 0.8,-1 0.1,-1.6 0.1,-3.2 0.1,-4.8 l 0,-7.6 z m -2.3,-16.1 c 0,-1.3 1.1,-2.7 3.2,-2.7 1.8,0 2.7,1.4 2.7,2.6 0,1.4 -0.9,2.9 -3.1,2.9 -1.1,0 -2.8,-1.1 -2.8,-2.8"
           class="st0"
           inkscape:connector-curvature="0"
           style="fill:#231f20" />
        <path
           id="path3417"
           d="m 417.9,113.6 -3.6,0 c -0.3,0 -0.4,-0.1 -0.3,-0.6 l 0.2,-1.6 c 0,-0.3 0.2,-0.4 0.6,-0.4 l 3.1,0 0,-1 c 0,-5.2 1.5,-8.6 3.5,-10.9 2.8,-3 5.7,-4.2 8.6,-4.2 2.5,0 4.8,0.9 4.8,2.9 0,1.3 -1.4,2.3 -2.2,2.3 -0.5,0 -1.1,-0.1 -1.5,-0.3 -0.5,-0.3 -1.1,-0.9 -1.3,-1.2 -0.7,-0.8 -1.4,-1.2 -2.4,-1.2 -1.4,0 -2.8,0.4 -3.9,1.8 -1.9,2.5 -1.8,7 -1.8,10.7 l 0,1.1 6.4,0 c 0.4,0 0.4,0.3 0.4,0.5 l -0.3,1.7 c -0.1,0.2 -0.3,0.3 -0.7,0.3 l -5.8,0 0,4.7 c 0,6.2 0,11 0.1,11.6 0.1,0.9 0.3,1.4 1.4,1.4 l 3,0 c 0.5,0 0.6,0.1 0.6,0.4 l 0,0.8 c 0,0.4 -0.1,0.6 -0.4,0.6 -0.3,0 -2.3,-0.2 -6.3,-0.2 -2.9,0 -5.6,0.2 -6,0.2 -0.3,0 -0.4,-0.1 -0.4,-0.4 l 0,-1.2 c 0,-0.3 0.1,-0.4 0.5,-0.4 l 2.5,0 c 1,0 1.2,-0.6 1.3,-1.8 l 0,-9.9 0,-5.7 z"
           class="st0"
           inkscape:connector-curvature="0"
           style="fill:#231f20" />
        <path
           id="path3419"
           d="m 430.4,130 c -2.4,-2.9 -2.9,-4.8 -2.9,-8.6 0,-2.7 1.4,-6 4.5,-8.5 2.7,-2.1 5.3,-2.5 7,-2.5 2.9,0 5.8,1.5 7.4,3.1 2.4,2.4 3.6,5.2 3.6,8.6 0,5.7 -5.2,11.6 -11.6,11.6 -2.5,-0.1 -5.8,-1.1 -8,-3.7 m 15.2,-8.5 c 0,-5.8 -4.3,-9.5 -6.9,-9.5 -1.4,0 -2.8,0.3 -4.1,1.7 -2.1,2.1 -2.8,4.3 -2.8,8.3 0,2.9 0.3,4.9 2,7.4 1.2,1.7 2.7,2.7 5.2,2.7 4,-0.1 6.6,-5 6.6,-10.6"
           class="st0"
           inkscape:connector-curvature="0"
           style="fill:#231f20" />
        <path
           id="path3421"
           d="m 454.2,119 c 0,-2.7 -0.4,-3.2 -1.9,-4 l -1,-0.5 c -0.3,-0.1 -0.4,-0.2 -0.4,-0.4 l 0,-0.3 c 0,-0.2 0.1,-0.3 0.4,-0.5 l 5.2,-2.7 c 0.3,-0.2 0.5,-0.2 0.7,-0.2 0.3,0 0.4,0.3 0.4,0.6 l 0.3,3.6 0.2,0 c 1.6,-2.4 4.1,-4.6 6.3,-4.6 1.8,0 2.7,1.1 2.7,2.3 0,1.5 -1.3,2.6 -2.2,2.6 -0.6,0 -1.1,-0.2 -1.5,-0.4 -0.4,-0.3 -1.1,-0.4 -1.7,-0.4 -0.8,0 -2.2,0.5 -3.1,2.2 -0.3,0.6 -0.5,1.5 -0.5,1.7 l 0,11.1 c 0,1.6 0.4,2.2 1.5,2.2 l 2.5,0 c 0.3,0 0.4,0.2 0.4,0.5 l 0,0.9 c 0,0.3 -0.1,0.5 -0.3,0.5 -0.3,0 -2.7,-0.2 -5.6,-0.2 -3.3,0 -5.5,0.2 -5.8,0.2 -0.2,0 -0.3,-0.1 -0.3,-0.5 l 0,-0.9 c 0,-0.4 0.1,-0.5 0.6,-0.5 l 2.1,0 c 0.8,0 1.2,-0.3 1.2,-1 0.1,-1.7 0.1,-3.6 0.1,-6.3 l 0,-5 z"
           class="st0"
           inkscape:connector-curvature="0"
           style="fill:#231f20" />
        <path
           id="path3423"
           d="m 489.5,130.1 c 0,0.8 0.5,1.1 1.2,1.1 l 1.7,0 c 0.5,0 0.6,0.2 0.6,0.5 l 0,0.8 c 0,0.4 -0.1,0.6 -0.4,0.6 -0.4,0 -2,-0.2 -5,-0.2 -2.7,0 -4.4,0.2 -4.7,0.2 -0.3,0 -0.4,-0.2 -0.4,-0.6 l 0,-0.8 c 0,-0.4 0.2,-0.5 0.7,-0.5 l 1.5,0 c 0.6,0 1,-0.3 1.1,-1.2 0.1,-1.4 0.1,-3.1 0.1,-4.4 l 0,-6.9 c 0,-2.1 0,-3.6 -1.5,-4.7 -1.3,-0.9 -2.5,-0.9 -3.8,-0.9 -0.8,0 -2.7,0.4 -4.3,2 -1.1,1.2 -1.2,2.6 -1.2,3.6 l 0,10.9 c 0,1.4 0.2,1.7 1.3,1.7 l 1.3,0 c 0.4,0 0.5,0.2 0.5,0.5 l 0,0.9 c 0,0.3 -0.1,0.5 -0.4,0.5 -0.4,0 -1.8,-0.2 -4.6,-0.2 -2.7,0 -4.4,0.2 -4.7,0.2 -0.3,0 -0.4,-0.2 -0.4,-0.5 l 0,-0.9 c 0,-0.3 0.1,-0.5 0.5,-0.5 l 1.5,0 c 0.7,0 1.1,-0.2 1.1,-1.1 l 0,-12.3 c 0,-1.6 -0.8,-2.5 -2.2,-3.1 l -0.4,-0.2 c -0.4,-0.2 -0.4,-0.3 -0.4,-0.5 l 0,-0.3 c 0,-0.3 0.2,-0.4 0.5,-0.5 l 4.5,-2.5 c 0.4,-0.2 0.7,-0.4 1,-0.4 0.3,0 0.4,0.2 0.4,0.6 l 0.4,3.2 0.1,0 c 1.5,-1.9 4.6,-3.8 7.2,-3.8 1.6,0 3.2,0.3 4.5,1.2 1.6,1.1 2.9,3.7 2.9,5 l 0,13.5 z"
           class="st0"
           inkscape:connector-curvature="0"
           style="fill:#231f20" />
        <path
           id="path3425"
           d="m 498.2,117.7 c 0,-1.8 -0.3,-2.7 -2.9,-3.2 -0.4,-0.1 -0.5,-0.2 -0.5,-0.4 l 0,-0.5 c 0,-0.2 0.1,-0.3 0.4,-0.4 1.7,-0.6 3.7,-1.5 5.7,-2.6 0.4,-0.2 0.7,-0.3 1,-0.3 0.3,0 0.3,0.3 0.3,0.6 -0.1,0.9 -0.1,4.2 -0.1,8.6 l 0,5.7 c 0,2.1 0,3.9 0.1,4.5 0.1,1 0.3,1.4 0.8,1.4 l 2.4,0 c 0.4,0 0.5,0.2 0.5,0.5 l 0,0.9 c 0,0.4 -0.1,0.5 -0.5,0.5 -0.4,0 -2.8,-0.2 -5.1,-0.2 -3,0 -5.1,0.2 -5.7,0.2 -0.3,0 -0.4,-0.1 -0.4,-0.4 l 0,-1.1 c 0,-0.3 0.2,-0.4 0.5,-0.4 l 2.6,0 c 0.6,0 0.8,-0.2 0.8,-1 0.1,-1.6 0.1,-3.2 0.1,-4.8 l 0,-7.6 z m -2.3,-16.1 c 0,-1.3 1.1,-2.7 3.2,-2.7 1.8,0 2.7,1.4 2.7,2.6 0,1.4 -0.9,2.9 -3.1,2.9 -1.1,0 -2.8,-1.1 -2.8,-2.8"
           class="st0"
           inkscape:connector-curvature="0"
           style="fill:#231f20" />
        <path
           id="path3427"
           d="m 522.5,126.7 c 0,3 0.6,3.9 1.6,3.9 0.8,0 1.6,-0.4 1.8,-0.8 0.2,-0.3 0.3,-0.4 0.5,-0.2 l 0.5,0.4 c 0.2,0.2 0.3,0.4 -0.1,0.9 -0.4,0.8 -1.4,2.6 -4.1,2.6 -1.9,0 -3.3,-1.4 -3.7,-3.5 l 0,0 c -1.1,1.3 -2.8,2.4 -5.2,3.2 -1,0.3 -1.9,0.3 -3.1,0.3 -1.3,0 -3.2,-1.1 -3.2,-4.4 0,-2.4 1.1,-4.5 5.3,-6.4 2.4,-1.1 5.1,-2.3 5.9,-3 l 0,-3.4 c -0.1,-0.9 -0.2,-2.3 -0.7,-2.9 -0.6,-0.7 -1.6,-1.2 -3.2,-1.2 -1.1,0 -2.7,0.4 -3.4,1.1 -0.7,0.7 -0.3,1.5 -0.3,2.4 0,1.8 -0.6,3 -2.8,3 -0.8,0 -1.3,-0.5 -1.3,-1.7 0,-1.7 1.5,-3.7 3.6,-4.9 2.2,-1.3 4,-1.8 6.4,-1.8 2.5,0 3.5,0.7 4.2,1.4 1.1,1.1 1.2,2.3 1.2,3.7 l 0,8 0,3.3 z m -3.9,-5.3 c -1.9,1.4 -7,2.5 -7,6.8 0,2 1.2,2.9 2.7,2.9 1.5,0 4.3,-1.8 4.3,-3.3 l 0,-6.4 z"
           class="st0"
           inkscape:connector-curvature="0"
           style="fill:#231f20" />
      </g>
    </g>
  </g>
  <style
     id="style3337"
     type="text/css">
	.st0{fill:#231F20;}
	.st1{fill:#990000;}
</style>
</svg>
